HIERARCHY
ROOT hip
{
	OFFSET 0.000000 0.000000 0.000000
	CHANNELS 6 Xposition Yposition Zposition Xrotation Zrotation Yrotation 
	JOINT abdomen
	{
		OFFSET 0.000000 3.422050 0.000000
		CHANNELS 3 Xrotation Zrotation Yrotation 
		JOINT chest
		{
			OFFSET 0.000000 8.486693 -0.684411
			CHANNELS 3 Xrotation Zrotation Yrotation 
			JOINT neck
			{
				OFFSET 0.000000 10.266162 -0.273764
				CHANNELS 3 Xrotation Zrotation Yrotation 
				JOINT head
				{
					OFFSET 0.000000 3.148285 0.000000
					CHANNELS 3 Xrotation Zrotation Yrotation 
					End Site
					{
						OFFSET 0.000000 3.148289 0.000000
					}
				}
			}
			JOINT lCollar
			{
				OFFSET 3.422053 6.707223 -0.821293
				CHANNELS 3 Yrotation Zrotation Xrotation 
				JOINT lShldr
				{
					OFFSET 3.285171 0.000000 0.000000
					CHANNELS 3 Zrotation Yrotation Xrotation 
					JOINT lForeArm
					{
						OFFSET 10.129278 0.000000 0.000000
						CHANNELS 3 Yrotation Zrotation Xrotation 
						JOINT lHand
						{
							OFFSET 8.486692 0.000000 0.000000
							CHANNELS 3 Zrotation Yrotation Xrotation 
							End Site
							{
								OFFSET 4.106464 0.000000 0.000000
							}
						}
					}
				}
			}
			JOINT rCollar
			{
				OFFSET -3.558935 6.707223 -0.821293
				CHANNELS 3 Yrotation Zrotation Xrotation 
				JOINT rShldr
				{
					OFFSET -3.148289 0.000000 0.000000
					CHANNELS 3 Zrotation Yrotation Xrotation 
					JOINT rForeArm
					{
						OFFSET -10.266159 0.000000 0.000000
						CHANNELS 3 Yrotation Zrotation Xrotation 
						JOINT rHand
						{
							OFFSET -8.349810 0.000000 0.000000
							CHANNELS 3 Zrotation Yrotation Xrotation 
							End Site
							{
								OFFSET -4.106464 0.000000 0.000000
							}
						}
					}
				}
			}
		}
	}
	JOINT lThigh
	{
		OFFSET 5.338403 -1.642589 1.368821
		CHANNELS 3 Xrotation Zrotation Yrotation 
		JOINT lShin
		{
			OFFSET -2.053232 -20.121670 0.000000
			CHANNELS 3 Xrotation Zrotation Yrotation 
			JOINT lFoot
			{
				OFFSET 0.000000 -19.300380 -1.231939
				CHANNELS 3 Xrotation Yrotation Zrotation 
				End Site
				{
					OFFSET 0.000000 -2.463878 4.653993
				}
			}
		}
	}
	JOINT rThigh
	{
		OFFSET -5.338403 -1.642589 1.368821
		CHANNELS 3 Xrotation Zrotation Yrotation 
		JOINT rShin
		{
			OFFSET 2.053232 -20.121670 0.000000
			CHANNELS 3 Xrotation Zrotation Yrotation 
			JOINT rFoot
			{
				OFFSET 0.000000 -19.300380 -1.231939
				CHANNELS 3 Xrotation Yrotation Zrotation 
				End Site
				{
					OFFSET 0.000000 -2.463878 4.653993
				}
			}
		}
	}
}
MOTION
Frames: 8
Frame Time: 0.033264
0.000000 43.528500 0.000000 0.000000 0.000000 0.000000 0.000000 0.000000 0.000000 0.000000 0.000000 0.000000 0.000000 0.000000 0.000000 0.000000 0.000000 0.000000 0.000000 0.000000 0.000000 0.000000 0.000000 0.000000 0.000000 0.000000 0.000000 0.000000 0.000000 0.000000 0.000000 0.000000 0.000000 0.000000 0.000000 0.000000 0.000000 0.000000 0.000000 0.000000 0.000000 0.000000 0.000000 0.000000 0.000000 0.000000 0.000000 0.000000 0.000000 0.000000 0.000000 0.000000 0.000000 0.000000 0.000000 0.000000 0.000000 0.000000 0.000000 0.000000 
0.327403 19.910107 3.325126 30.999151 0.000000 0.000000 -5.830444 0.000000 0.000000 6.921129 0.882115 -0.305779 0.000000 0.000000 0.000000 0.000000 0.000000 0.000000 -14.801613 -13.220844 -52.837605 -15.286136 24.166203 -2.412699 -24.809669 -50.253304 -32.308880 -0.969536 -8.001175 2.506264 15.173655 13.185354 -53.189297 15.737292 -24.171614 -2.561835 24.270092 49.864574 -31.926313 1.195914 7.758193 2.873363 -130.161072 35.770527 -0.747527 105.158562 15.287025 -2.910669 -10.617650 10.039466 -2.081222 -130.178268 -35.779312 0.728692 105.167023 -15.326912 2.886749 -10.613771 -10.050216 2.084091 
0.327403 19.728546 3.423582 30.057497 0.000000 0.000000 -6.551391 0.000000 0.000000 6.200248 0.882107 -0.305694 0.376873 0.000000 0.000000 0.294146 0.000000 0.000000 -14.621314 -13.740935 -52.573189 -15.286136 24.166203 -2.412699 -24.505566 -49.824715 -32.084396 -0.160144 -6.405236 3.049603 14.877837 13.594470 -52.845020 15.737292 -24.171614 -2.561835 24.017883 49.534641 -31.743937 0.335062 6.215084 3.389214 -129.944717 36.123089 -1.117517 105.807549 15.329329 -2.739747 -10.818815 9.535217 -1.957256 -129.961716 -36.131939 1.098556 105.816742 -15.369660 2.715413 -10.815763 -9.546549 1.959769 
0.327403 19.546988 3.522038 29.114813 0.000000 0.000000 -7.272796 0.000000 0.000000 5.478910 0.882100 -0.305609 0.754031 0.000000 0.000000 0.588427 0.000000 0.000000 -14.438059 -14.260433 -52.306389 -15.286138 24.166203 -2.412700 -24.206621 -49.395245 -31.865318 0.665926 -4.809997 3.616619 14.578858 14.002006 -52.497829 15.737292 -24.171614 -2.561835 23.768927 49.204132 -31.564968 -0.541324 4.673213 3.929340 -129.730118 36.476948 -1.487712 106.457100 15.369775 -2.568219 -11.018661 9.030359 -1.835217 -129.746933 -36.485886 1.468618 106.467026 -15.410549 2.543467 -11.016433 -9.042272 1.837380 
0.327403 19.365427 3.620495 28.171240 0.000000 0.000000 -7.994603 0.000000 0.000000 4.757170 0.882094 -0.305524 1.131466 0.000000 0.000000 0.882839 0.000000 0.000000 -14.251800 -14.779286 -52.037128 -15.286136 24.166203 -2.412699 -23.912701 -48.964954 -31.651503 1.509512 -3.216864 4.207879 14.276690 14.407908 -52.147705 15.737294 -24.171614 -2.561835 23.523155 48.873081 -31.389347 -1.434057 3.133948 4.494232 -129.517288 36.832062 -1.858115 107.107178 15.408365 -2.396126 -11.217206 8.524922 -1.715086 -129.533905 -36.841080 1.838889 107.117813 -15.449567 2.370945 -11.215802 -8.537411 1.716905 
0.327402 19.183868 3.718951 27.226891 0.000000 0.000000 -8.716754 0.000000 0.000000 4.035085 0.882089 -0.305438 1.509171 0.000000 0.000000 1.177378 0.000000 0.000000 -14.062499 -15.297450 -51.765381 -15.286136 24.166203 -2.412699 -23.623652 -48.533855 -31.442801 2.371458 -1.627293 4.823974 13.971313 14.812126 -51.794621 15.737290 -24.171610 -2.561834 23.280512 48.541512 -31.217022 -2.343950 1.598693 5.084394 -129.306274 37.188416 -2.228731 107.757721 15.445080 -2.223491 -11.414483 8.018937 -1.596847 -129.322708 -37.197510 2.209375 107.769104 -15.486712 2.197880 -11.413898 -8.032000 1.598327 
0.327402 19.002308 3.817408 26.281902 0.000000 0.000000 -9.439194 0.000000 0.000000 3.312714 0.882085 -0.305353 1.887138 0.000000 0.000000 1.472041 0.000000 0.000000 -13.870121 -15.814873 -51.491108 -15.286136 24.166203 -2.412699 -23.339352 -48.102028 -31.239094 3.252621 -0.042770 5.465512 13.662703 15.214605 -51.438538 15.737292 -24.171614 -2.561835 23.040905 48.209412 -31.047886 -3.271823 0.068890 5.700357 -129.097092 37.545959 -2.599571 108.408699 15.479917 -2.050358 -11.610516 7.512438 -1.480482 -129.113342 -37.555134 2.580080 108.420807 -15.521965 2.024307 -11.610743 -7.526071 1.481628 
0.327402 18.820749 3.915864 25.336393 0.000000 0.000000 -10.161860 0.000000 0.000000 2.590113 0.882082 -0.305268 2.265358 0.000000 0.000000 1.766824 0.000000 0.000000 -13.674619 -16.331512 -51.214237 -15.286135 24.166201 -2.412699 -23.059652 -47.669460 -31.040226 4.153862 1.535175 6.133124 13.350846 15.615300 -51.079468 15.737292 -24.171614 -2.561835 22.804287 47.876839 -30.881905 -4.218493 -1.453991 6.342657 -128.889816 37.904659 -2.970645 109.060028 15.512857 -1.876752 -11.805325 7.005456 -1.365973 -128.905838 -37.913914 2.951014 109.072884 -15.555324 1.850257 -11.806365 -7.019658 1.366792 
